<?xml version="1.0" standalone="no"?>
<!DOCTYPE svg PUBLIC "-//W3C//DTD SVG 20010904//EN"
 "http://www.w3.org/TR/2001/REC-SVG-20010904/DTD/svg10.dtd">
<svg version="1.0" xmlns="http://www.w3.org/2000/svg"
 width="600.000000pt" height="546.000000pt" viewBox="0 0 600.000000 546.000000"
 preserveAspectRatio="xMidYMid meet">
<g transform="translate(0.000000,546.000000) scale(0.100000,-0.100000)"
fill="#000000" stroke="none">
<path d="M4355 5083 c-337 -44 -638 -295 -749 -625 -35 -104 -47 -279 -26
-389 13 -67 58 -162 103 -214 34 -39 34 -40 20 -80 -23 -67 -54 -195 -72 -300
l-17 -99 -29 39 c-16 22 -55 69 -86 105 l-57 65 20 75 c39 148 9 370 -69 509
-125 226 -364 386 -649 436 -110 19 -315 19 -509 0 -343 -33 -602 -3 -866 101
-135 53 -156 46 -169 -61 -27 -210 5 -454 89 -670 116 -300 378 -573 710 -740
289 -145 635 -188 922 -115 182 47 349 165 450 319 l15 24 45 -59 c119 -155
190 -296 229 -452 11 -43 27 -82 37 -89 26 -20 60 -16 83 10 25 26 24 44 -11
162 -20 70 -23 101 -23 245 1 170 10 233 56 388 17 59 24 72 37 66 89 -39 128
-46 225 -41 88 5 107 9 175 43 102 50 196 145 245 246 52 108 83 247 96 428
17 243 46 356 125 492 49 85 54 105 28 137 -33 39 -236 63 -378 44z m222 -140
c-3 -10 -22 -58 -42 -107 -49 -116 -72 -235 -85 -431 -6 -100 -18 -188 -30
-234 -43 -153 -124 -267 -227 -317 -92 -45 -266 -43 -305 3 -10 13 -6 27 21
77 51 94 138 222 203 299 32 38 58 78 58 88 0 38 -53 69 -94 53 -36 -14 -205
-243 -260 -351 -32 -65 -44 -72 -67 -42 -54 72 -68 262 -30 404 35 132 92 227
201 342 146 153 330 231 549 232 104 1 113 -1 108 -16z m-3144 -397 c239 -81
491 -103 803 -72 89 9 219 16 290 16 329 0 596 -128 737 -351 78 -123 111
-299 81 -436 -6 -31 -13 -29 -81 15 -147 96 -268 138 -588 202 -110 22 -229
50 -265 62 -82 27 -240 105 -305 152 -57 41 -86 45 -115 16 -22 -22 -26 -51
-10 -80 12 -23 171 -122 257 -161 108 -48 242 -86 428 -119 198 -36 356 -83
455 -137 75 -41 146 -88 155 -104 12 -18 -63 -117 -132 -174 -188 -155 -445
-200 -767 -134 -258 52 -522 202 -718 407 -178 186 -283 402 -323 662 -15 94
-20 270 -9 270 3 0 52 -15 107 -34z"/>
<path d="M1004 3612 c-22 -11 -57 -39 -77 -63 -69 -80 -68 -73 -65 -771 3
-559 6 -629 21 -683 30 -100 90 -224 165 -340 110 -171 93 -155 172 -155 39 0
70 3 70 7 0 9 -88 161 -130 223 -66 98 -129 223 -147 295 -16 64 -18 126 -18
680 0 556 2 613 17 641 21 38 66 58 114 51 73 -12 82 -32 138 -303 24 -120 61
-292 81 -382 76 -348 87 -410 74 -434 -7 -13 -13 -59 -13 -103 0 -90 10 -116
107 -267 29 -46 68 -110 86 -143 44 -80 69 -105 102 -105 27 0 69 39 69 64 0
7 -43 84 -96 171 -130 218 -134 226 -134 286 0 105 77 181 182 181 29 -1 62
-8 81 -19 34 -20 99 -112 193 -272 93 -158 148 -223 226 -272 135 -85 153 -98
200 -145 26 -25 59 -71 73 -102 l26 -55 61 7 c34 3 63 8 65 10 10 10 -43 119
-88 179 -55 72 -123 129 -235 195 -39 23 -85 56 -101 75 -16 18 -82 119 -146
223 -64 104 -131 203 -149 221 -90 86 -222 110 -333 59 -40 -18 -57 -22 -60
-13 -2 7 -20 84 -39 172 -34 155 -48 219 -122 575 -40 193 -61 241 -129 290
-45 32 -57 35 -125 38 -57 2 -85 -2 -116 -16z"/>
<path d="M4769 3621 c-44 -14 -73 -32 -103 -65 -54 -60 -44 -20 -206 -796 -24
-113 -46 -209 -50 -213 -4 -4 -25 2 -46 15 -33 20 -53 23 -134 23 -78 0 -102
-4 -136 -22 -60 -32 -113 -90 -175 -194 -31 -52 -82 -137 -114 -189 -74 -123
-91 -141 -205 -207 -118 -70 -211 -162 -261 -258 -59 -114 -60 -110 18 -110
l67 0 33 60 c36 64 120 148 181 180 143 75 186 118 293 295 45 74 98 161 117
193 47 78 85 114 133 127 110 30 219 -52 227 -170 4 -53 1 -65 -33 -127 -21
-37 -62 -105 -91 -149 -110 -171 -123 -215 -70 -243 45 -25 72 -7 118 75 24
42 73 124 111 182 37 58 74 128 82 156 19 62 19 139 0 190 -12 35 -11 49 11
145 13 58 38 169 54 246 75 362 141 662 149 682 26 57 130 68 180 19 l26 -26
3 -618 c2 -444 0 -632 -8 -671 -20 -92 -62 -179 -173 -358 -59 -95 -107 -175
-107 -178 0 -3 34 -5 75 -5 l75 0 24 48 c13 26 45 78 71 117 66 97 121 210
147 302 23 77 23 83 23 728 0 649 0 650 -22 691 -56 105 -175 157 -284 125z"/>
<path d="M569 1160 c-125 -21 -209 -112 -209 -226 0 -148 96 -234 260 -234 74
0 152 20 181 46 16 14 19 31 19 100 l0 82 -51 4 c-28 1 -53 1 -55 -1 -2 -2 -4
-31 -4 -63 0 -54 -2 -59 -26 -68 -106 -41 -223 39 -210 144 12 104 130 157
231 106 44 -23 62 -20 94 14 l22 24 -33 25 c-56 41 -142 60 -219 47z"/>
<path d="M3643 1159 c-166 -32 -250 -190 -178 -336 42 -83 119 -123 240 -123
57 0 82 5 124 26 29 15 55 33 58 41 5 14 -42 73 -58 73 -5 0 -25 -11 -45 -25
-65 -44 -161 -26 -208 37 -27 38 -27 118 0 156 48 64 151 80 215 33 l30 -22
35 26 c40 31 41 35 11 63 -44 41 -150 66 -224 51z"/>
<path d="M970 931 l0 -232 58 3 57 3 3 63 3 62 49 0 c48 0 48 0 95 -65 l46
-65 60 0 c68 0 68 -6 2 87 l-43 62 30 21 c40 28 60 69 60 122 0 60 -28 108
-81 138 -40 22 -57 24 -191 28 l-148 4 0 -231z m264 128 c51 -23 55 -103 7
-128 -11 -6 -49 -11 -85 -11 l-66 0 0 75 0 75 60 0 c32 0 70 -5 84 -11z"/>
<path d="M1547 1154 c-4 -4 -7 -108 -7 -231 l0 -223 193 2 192 3 0 40 0 40
-132 3 -133 3 0 49 0 49 113 3 112 3 0 40 0 40 -112 3 -113 3 0 44 0 45 129 0
128 0 -1 43 -1 42 -181 3 c-99 1 -183 -1 -187 -4z"/>
<path d="M2074 1147 c-2 -7 -3 -109 -2 -227 l3 -215 190 0 190 0 0 40 0 40
-132 3 -133 3 0 49 0 50 110 0 110 0 0 45 0 45 -110 0 -110 0 0 45 0 45 125 0
125 0 0 45 0 45 -180 0 c-137 0 -182 -3 -186 -13z"/>
<path d="M2600 930 l0 -230 55 0 54 0 3 135 3 135 75 -87 c155 -181 158 -183
206 -183 l44 0 0 230 0 230 -55 0 -54 0 -3 -135 -3 -135 -77 92 c-140 168
-151 178 -203 178 l-45 0 0 -230z"/>
<path d="M4160 1151 c-106 -32 -170 -118 -170 -225 1 -66 27 -123 79 -167 51
-44 98 -59 187 -59 114 0 191 46 233 140 54 118 -4 251 -132 305 -38 16 -152
19 -197 6z m155 -95 c97 -41 100 -202 6 -251 -102 -52 -232 31 -216 139 15
100 113 152 210 112z"/>
<path d="M4650 930 l0 -230 55 0 55 0 0 65 0 65 54 0 54 0 42 -65 42 -65 59 0
c33 0 59 4 59 9 0 5 -20 36 -45 70 -25 34 -45 65 -45 69 0 5 11 14 25 20 29
13 64 82 65 125 0 41 -23 90 -58 119 -42 35 -109 48 -247 48 l-115 0 0 -230z
m279 116 c27 -25 28 -79 1 -106 -16 -16 -33 -20 -95 -20 l-75 0 0 68 c0 38 3
72 8 76 4 4 37 6 74 4 47 -2 73 -9 87 -22z"/>
<path d="M5220 930 l0 -230 188 2 187 3 0 40 0 40 -132 3 -133 3 0 49 0 50
115 0 115 0 0 45 0 45 -115 0 -115 0 0 45 0 45 131 0 130 0 -3 43 -3 42 -182
3 -183 2 0 -230z"/>
<path d="M2177 356 c-3 -8 -4 -16 -2 -18 2 -1 361 -2 799 0 699 2 795 4 790
17 -9 22 -1579 23 -1587 1z"/>
</g>
</svg>
